<svg width="1014" height="682" viewBox="0 0 1014 682" fill="none" xmlns="http://www.w3.org/2000/svg">
<g id="Frame 1">
<g id="Moon">
<path d="M494.389 522.047C611.229 522.047 705.947 427.368 705.947 310.577C705.947 193.785 611.229 99.1068 494.389 99.1068C377.549 99.1068 282.832 193.785 282.832 310.577C282.832 427.368 377.549 522.047 494.389 522.047Z" fill="#EC8C92"/>
<path d="M310.371 265.605L309.267 265.415C309.323 265.09 315.14 232.672 337.629 207.811L338.459 208.561C316.188 233.181 310.427 265.286 310.371 265.605Z" fill="white"/>
<path d="M341.026 187.263L340.101 186.636C340.28 186.372 358.281 160.273 387.159 147.54L387.613 148.566C359.037 161.164 341.205 187.005 341.026 187.263Z" fill="white"/>
<path d="M693.595 306.739H692.474C692.474 266.535 674.221 230.095 674.036 229.731L675.034 229.227C675.219 229.591 693.595 266.26 693.595 306.739Z" fill="white"/>
<path d="M671.772 285.777C670.909 269.762 665.692 256.284 665.641 256.149L666.684 255.74C666.734 255.875 672.013 269.515 672.893 285.716L671.772 285.777Z" fill="white"/>
<path d="M275.21 257.986L274.112 257.751C274.179 257.426 281.257 225.176 306.061 192.585L306.952 193.263C282.299 225.658 275.277 257.667 275.21 257.986Z" fill="black"/>
<path d="M310.247 167.858L309.39 167.141C309.457 167.063 316.031 159.231 324.415 151.322L325.183 152.134C316.844 159.999 310.309 167.78 310.247 167.858Z" fill="black"/>
<path d="M337.966 152.095L337.114 151.366C337.209 151.254 346.815 140.163 365.146 127.659C382.054 116.125 410.063 100.989 447.505 94.3508L447.701 95.4544C410.456 102.059 382.592 117.117 365.779 128.584C347.566 141.003 338.055 151.983 337.966 152.095Z" fill="black"/>
<path d="M705.408 238.503C695.977 200.075 666.05 166.9 665.748 166.57L666.577 165.814C666.88 166.144 696.997 199.537 706.496 238.234L705.408 238.503Z" fill="black"/>
<path d="M713.719 294.449C712.604 280.472 709.937 268.238 707.897 260.435L708.984 260.149C711.035 267.997 713.719 280.299 714.84 294.359L713.719 294.449Z" fill="black"/>
<path d="M719.8 347.274L718.707 347.022C719.671 342.855 720.512 338.334 721.207 333.589L722.316 333.752C721.616 338.524 720.764 343.073 719.8 347.274Z" fill="black"/>
<path d="M724.39 312.784L723.269 312.722C724.149 296.589 723.37 281.033 721.324 274.013L722.4 273.7C724.479 280.831 725.275 296.538 724.39 312.784Z" fill="black"/>
<path d="M706.753 363.822L705.689 363.481C707.656 357.363 709.326 348.849 710.654 338.188L711.764 338.328C710.43 349.056 708.743 357.632 706.753 363.822Z" fill="black"/>
<path d="M712.772 328.968L711.657 328.867C712.066 324.43 712.246 321.483 712.246 321.45L713.366 321.517C713.361 321.545 713.181 324.52 712.772 328.968Z" fill="black"/>
<path d="M599.288 117.856C569.916 99.1684 520.723 92.7487 520.23 92.687L520.37 91.5779C520.493 91.5947 532.951 93.1968 548.895 97.1013C563.623 100.709 584.42 107.073 599.893 116.915L599.288 117.856Z" fill="black"/>
<path d="M574.786 97.7399C566.907 94.2668 548.598 90.1382 548.413 90.099L548.66 89.0066C548.845 89.0458 567.26 93.1968 575.24 96.7204L574.786 97.7399Z" fill="black"/>
<path d="M336.352 472.235C333.975 470.358 331.627 468.392 329.374 466.398L330.12 465.557C332.361 467.541 334.693 469.496 337.052 471.355L336.352 472.235Z" fill="black"/>
<path d="M317.415 454.645C285.298 419.634 279.144 381.429 279.083 381.048L280.192 380.88C280.248 381.261 286.362 419.141 318.239 453.889L317.415 454.645Z" fill="black"/>
<path d="M326.219 451.749C314.72 442.271 303.971 420.642 303.864 420.423L304.867 419.93C304.974 420.143 315.622 441.559 326.931 450.886L326.219 451.749Z" fill="black"/>
<path d="M437.608 523.677C421.26 520.551 405.109 514.994 389.602 507.157L390.107 506.154C405.524 513.941 421.574 519.464 437.821 522.573L437.608 523.677Z" fill="black"/>
<path d="M369.797 495.611C361.761 490.234 357.261 486.245 357.216 486.206L357.961 485.371C358.006 485.41 362.456 489.354 370.419 494.682L369.797 495.611Z" fill="black"/>
<path d="M504.538 535.446L504.482 534.326C508.629 534.124 512.687 533.81 516.537 533.396L516.66 534.511C512.788 534.931 508.708 535.245 504.538 535.446Z" fill="black"/>
<path d="M489.805 535.704C464.149 535.424 442.651 531.581 442.433 531.542L442.635 530.438C442.848 530.477 464.261 534.309 489.816 534.583L489.805 535.704Z" fill="black"/>
<path d="M367.186 462.208C331.835 437.431 318.811 398.128 318.682 397.736L319.747 397.389C319.875 397.781 332.793 436.736 367.83 461.289L367.186 462.208Z" fill="white"/>
<path d="M444.478 505.079C416.732 500.205 388.952 481.64 388.678 481.45L389.305 480.52C389.58 480.705 417.169 499.141 444.675 503.969L444.478 505.079Z" fill="white"/>
<path d="M398.833 471.406C391.446 469.092 382.53 460.83 382.155 460.482L382.917 459.664C383.006 459.748 392.023 468.101 399.163 470.341L398.833 471.406Z" fill="white"/>
</g>
<g id="base">
<path d="M454.51 181.058C456.735 186.413 482.301 202.888 514.346 211.05L515.298 208.994C502.863 198.099 481.365 187.164 465.404 183.047C459.554 181.54 456.365 180.84 454.51 181.058Z" fill="#F2BDBA"/>
<path d="M512.821 122.407C507.189 125.835 482.693 140.164 465.012 153.643C462.199 155.788 460.103 158.729 458.999 162.09C456.707 169.087 454.65 176.857 454.067 179.109C453.933 179.63 454 180.184 454.269 180.649C455.922 183.562 464.984 193.589 514.357 211.045L525.946 185.988C525.946 185.988 518.627 139.363 516.38 123.79C516.15 122.227 514.351 121.477 512.821 122.407Z" fill="white"/>
<path d="M515.876 133.201C512.939 130.753 509.448 129.129 505.508 128.373L505.721 127.275C509.851 128.07 513.505 129.773 516.593 132.339L515.876 133.201Z" fill="black"/>
<path d="M459.055 184.055C466.122 189.618 484.593 199.735 507.408 207.135L508.159 205.561C498.732 197.555 477.263 187.612 459.514 183.119C458.96 182.979 458.601 183.702 459.055 184.055Z" fill="black"/>
<path d="M490.18 169.625L493.829 163.995C494.445 163.042 494.07 161.765 493.033 161.3L491.509 160.617C490.59 160.202 490.472 158.947 491.301 158.37L507.593 147.083C508.416 146.511 508.232 145.245 507.279 144.926L499.82 142.467C498.934 142.176 497.97 142.304 497.191 142.82L481.152 153.435C480.166 154.085 479.37 154.981 478.832 156.029L476.579 160.421C475.442 162.639 476.417 165.356 478.703 166.342L487.888 170.314C488.723 170.678 489.693 170.381 490.18 169.625ZM509.442 167.137L508.613 166.622C507.873 166.163 507.593 165.227 507.951 164.437L509.05 162.029C509.694 160.617 509.145 158.947 507.789 158.191L504.107 156.141C502.661 155.34 500.84 155.861 500.049 157.312L488.925 177.579C488.185 178.929 488.595 180.621 489.872 181.484L493.812 184.133C495.263 185.108 497.242 184.626 498.088 183.097L501.277 177.288C501.753 176.425 502.851 176.134 503.692 176.644L504.129 176.913C505.088 177.501 506.343 177.142 506.847 176.14L510.137 169.641C510.596 168.751 510.288 167.664 509.442 167.137Z" fill="#93B4F6"/>
</g>
<g id="base_2">
<path d="M354.218 242.988C354.218 242.988 356.852 252.881 363.493 266.292C372.908 285.299 377.503 292.912 382.345 301.074C388.241 311.012 406.242 321.089 440.971 299.584C476.955 277.305 471.468 262.628 469.081 257.52C467.669 254.495 456.208 233.084 446.698 216.833C442.988 210.492 439.485 205.075 437.154 201.579C435.215 198.672 432.099 196.784 428.625 196.392C419.154 195.322 399.091 195.429 378.462 210.369C350.021 230.972 354.218 242.988 354.218 242.988Z" fill="white"/>
<path d="M470.527 268.398C471.474 263.62 469.412 258.735 465.393 255.968C455.205 248.943 435.249 248.641 409.946 264.617C382.144 282.173 381.499 297.029 385.635 305.258C393.739 313.252 411.212 318.008 440.965 299.584C462.289 286.386 469.047 275.854 470.527 268.398Z" fill="#F2BDBA"/>
<path d="M390.841 304.715C387.383 299.769 387.316 284.274 413.269 267.586C439.429 250.764 462.378 255.548 465.752 264.617C469.126 273.686 450.329 290.296 429.392 300.928C410.45 310.552 394.675 310.199 390.841 304.715Z" fill="black"/>
<path d="M387.361 239.711C385.73 235.611 385.68 231.04 387.602 228.043C388.05 227.342 388.874 226.2 388.46 225.483L384.85 220.25C384.088 218.928 382.099 219.757 381.185 220.984C376.685 227.051 375.004 234.955 378.366 243.392C383.304 255.8 392.472 259.43 401.921 257.122C403.451 256.746 404.196 255.015 403.406 253.654L400.649 249.089C400.043 248.041 398.883 247.464 397.673 247.559C393.593 247.89 389.558 245.223 387.361 239.711ZM414.278 225.074C407.133 213.763 395.779 212.038 388.342 214.861C387.042 215.354 386.453 216.861 387.148 218.066L391.206 223.561C391.687 224.39 392.64 224.793 393.576 224.614C397.544 223.847 402.419 225.382 405.631 230.233C408.181 234.087 408.175 240.12 404.129 243.997C403.243 244.848 403.333 246.31 403.949 247.375L406.539 251.839C407.564 253.604 409.856 253.772 411.42 252.467C418.75 246.349 419.288 233.006 414.278 225.074Z" fill="#93B4F6"/>
</g>
<g id="man">
<path d="M629.369 108.292L628.54 103.261C627.85 99.0768 623.709 97.0266 619.707 98.4494C614.462 100.309 607.658 102.516 603.971 105.385C602.508 106.522 601.712 108.314 601.864 110.157C603.214 126.532 604.761 139.293 605.495 144.928C605.753 146.928 605.092 148.939 603.691 150.39L587.327 167.403L603.92 175.884L634.984 146.95L629.369 108.292Z" fill="#274D76"/>
<path d="M520.85 203.277L532.72 177.615C534.776 173.173 539.114 170.232 544.001 169.957L568.597 168.596C574.65 168.26 580.54 166.512 585.797 163.493C590.101 161.022 595.397 161.045 599.678 163.56C602.491 165.212 606.044 164.904 608.533 162.792L617.415 155.252C618.435 154.384 618.984 153.09 618.9 151.757C618.43 144.62 616.933 121.249 616.743 109.855C616.715 108.269 617.606 106.807 619.029 106.113C624.942 103.228 634.2 101.822 641.295 103.032C643.049 103.329 644.422 104.768 644.534 106.544C645.01 114.319 639.697 122.649 639.697 122.649L644.377 157.812C645.408 165.565 642.096 173.257 635.758 177.839L606.207 199.193C603.965 200.812 601.634 202.313 599.224 203.675C593.502 206.918 587.383 209.405 581.022 211.069L558.375 216.99L520.85 203.277Z" fill="#FFF3A1"/>
<path d="M531.033 180.22L544.791 178.136L555.484 189.491L534.759 209.204L523.798 196.824L531.033 180.22Z" fill="#274D76"/>
<path d="M564.69 173.792C567.383 163.495 561.215 152.966 550.914 150.274C540.613 147.583 530.079 153.748 527.387 164.045C524.694 174.342 530.862 184.871 541.163 187.563C551.464 190.254 561.998 184.089 564.69 173.792Z" fill="#FFF3A1"/>
<path d="M578.993 178.578C573.602 173.766 565.381 174.052 560.331 179.217L545.323 194.577C544.152 195.776 542.426 196.252 540.806 195.826L518.496 189.972C516.955 189.569 515.56 188.74 514.467 187.581L508.061 180.791C507.529 180.225 506.57 180.326 506.229 181.021C505.876 181.732 505.657 182.897 506.021 184.785C506.828 188.987 504.39 188.975 501.913 186.992C500.636 185.973 498.657 184.382 497.043 183.077C495.816 182.085 494.006 182.97 494 184.544C493.989 186.46 494.264 188.656 495.368 189.883C493.115 196.639 496.898 204.661 502.889 207.898C509.804 211.635 547.077 223.147 547.077 223.147C550.698 224.217 554.615 223.214 557.277 220.542L579.565 198.168C585.034 192.689 584.771 183.738 578.993 178.578Z" fill="#FFF3A1"/>
<path d="M534.384 156.149C531.997 157.879 530.136 160.372 529.032 163.341C526.544 170.036 528.892 177.228 534.137 181.525C536.962 183.838 541.271 184.387 545.553 181.743C548.338 180.024 550.446 177.256 551.667 173.974C553.808 168.221 552.362 162.255 548.54 157.98C545.402 154.479 538.363 153.258 534.384 156.149Z" fill="black"/>
<path d="M562.612 207.669C562.225 207.669 561.833 207.568 561.474 207.361C558.728 205.764 553.774 202.644 551.449 199.748C550.793 198.93 550.81 197.737 551.499 196.908L558.779 188.135C559.547 187.205 560.908 187.043 561.878 187.76C564.164 189.457 568.328 192.594 570.542 194.555C571.433 195.345 571.573 196.656 570.867 197.608C568.323 201.047 565.784 204.767 564.501 206.672C564.058 207.316 563.341 207.669 562.612 207.669ZM560.522 188.432C560.191 188.432 559.86 188.572 559.636 188.847L552.356 197.619C552.009 198.039 551.992 198.633 552.323 199.042C554.621 201.904 559.883 205.137 562.04 206.392C562.562 206.694 563.229 206.543 563.565 206.044C564.859 204.128 567.404 200.398 569.959 196.936C570.312 196.454 570.245 195.787 569.791 195.389C567.611 193.457 563.475 190.342 561.2 188.656C560.998 188.505 560.757 188.432 560.522 188.432Z" fill="black"/>
<path d="M543.204 199.116L542.219 199.651L552.388 218.379L553.373 217.845L543.204 199.116Z" fill="black"/>
<path d="M543.268 209.069L542.19 209.379L545.331 220.297L546.408 219.988L543.268 209.069Z" fill="black"/>
<path d="M538.199 200.892L537.227 217.3L538.346 217.366L539.318 200.958L538.199 200.892Z" fill="black"/>
<path d="M508.577 207.254L507.495 206.963L510.376 196.196C510.555 195.518 511.166 195.098 511.866 195.171C512.561 195.244 513.071 195.787 513.111 196.482L513.43 202.93C513.441 203.109 513.565 203.165 513.643 203.182C513.721 203.198 513.856 203.204 513.94 203.042L518.098 194.841L519.096 195.345L514.943 203.546C514.652 204.117 514.041 204.408 513.413 204.274C512.786 204.14 512.348 203.624 512.315 202.986L511.995 196.538C511.984 196.336 511.838 196.291 511.754 196.286C511.67 196.275 511.519 196.291 511.469 196.482L508.577 207.254Z" fill="black"/>
<path d="M623.793 150.876L623.617 151.982L640.02 154.596L640.197 153.489L623.793 150.876Z" fill="black"/>
<path d="M624.92 155.894L624.512 156.938L639.912 162.95L640.32 161.906L624.92 155.894Z" fill="black"/>
<path d="M625.137 160.221L624.287 160.952L635.177 173.601L636.027 172.87L625.137 160.221Z" fill="black"/>
<path d="M622.991 115.042C622.975 115.042 622.963 115.042 622.947 115.042C622.375 115.025 621.882 114.689 621.658 114.168L620.75 112.062C620.671 111.883 620.514 111.86 620.447 111.86C620.447 111.86 620.447 111.86 620.441 111.86C620.374 111.86 620.212 111.883 620.139 112.068L619.125 114.6L618.082 114.185L619.096 111.653C619.315 111.104 619.836 110.751 620.425 110.74C620.43 110.74 620.436 110.74 620.441 110.74C621.024 110.74 621.546 111.082 621.775 111.614L622.683 113.72C622.756 113.894 622.913 113.916 622.98 113.922C623.042 113.922 623.199 113.911 623.283 113.737L623.938 112.426C624.157 111.989 624.577 111.692 625.059 111.636C625.547 111.575 626.023 111.759 626.337 112.135L627.419 113.395C627.536 113.53 627.682 113.513 627.738 113.502C627.794 113.49 627.934 113.446 627.985 113.272L628.64 111.082C628.786 110.6 629.162 110.23 629.655 110.096C630.142 109.961 630.658 110.09 631.022 110.437L633.141 112.42C633.264 112.538 633.41 112.516 633.466 112.493C633.522 112.476 633.651 112.42 633.69 112.252L634.104 110.46C634.222 109.961 634.575 109.569 635.063 109.407C635.55 109.244 636.072 109.351 636.458 109.681L637.977 110.975C638.111 111.087 638.252 111.054 638.308 111.031C638.364 111.009 638.493 110.947 638.521 110.774L638.806 108.998C638.89 108.471 639.26 108.034 639.765 107.861C640.275 107.687 640.829 107.805 641.222 108.169C641.367 108.303 641.519 108.253 641.58 108.23C641.642 108.202 641.777 108.124 641.777 107.928V106.651H642.897V107.928C642.897 108.516 642.567 109.02 642.029 109.255C641.491 109.491 640.891 109.39 640.46 108.992C640.331 108.869 640.185 108.902 640.129 108.925C640.073 108.942 639.938 109.009 639.91 109.183L639.625 110.958C639.54 111.479 639.193 111.905 638.694 112.09C638.196 112.275 637.657 112.18 637.254 111.832L635.735 110.538C635.606 110.432 635.472 110.46 635.416 110.477C635.365 110.493 635.237 110.555 635.197 110.718L634.783 112.51C634.665 113.02 634.295 113.418 633.791 113.574C633.286 113.726 632.759 113.602 632.373 113.244L630.254 111.261C630.131 111.149 629.997 111.171 629.941 111.182C629.885 111.199 629.756 111.25 629.711 111.407L629.055 113.597C628.904 114.107 628.483 114.488 627.968 114.6C627.447 114.712 626.909 114.527 626.567 114.123L625.485 112.863C625.379 112.74 625.25 112.745 625.194 112.751C625.143 112.757 625.009 112.79 624.936 112.93L624.28 114.241C624.039 114.734 623.546 115.042 622.991 115.042Z" fill="black"/>
<path d="M621.351 106.526L620.786 107.494L626.135 110.612L626.7 109.645L621.351 106.526Z" fill="black"/>
<path d="M626.387 104.465L625.843 105.445L632.795 109.305L633.339 108.325L626.387 104.465Z" fill="black"/>
<path d="M632.743 103.777L632.263 104.789L637.984 107.502L638.465 106.49L632.743 103.777Z" fill="black"/>
<path d="M538.963 166.445C536.088 169.52 532.854 172.887 531.526 169.38C530.702 167.201 531.089 163.364 533.162 160.736C534.793 158.664 537.718 157.487 540.223 157.448C541.524 157.431 542.65 157.924 543.379 158.837C545.217 161.162 542.185 162.994 538.963 166.445Z" fill="#74BAAB"/>
<path d="M545.727 194.969L544.925 194.185L559.933 178.825C565.201 173.43 573.742 173.139 579.369 178.158L578.623 178.993C573.445 174.371 565.588 174.64 560.74 179.603L545.727 194.969Z" fill="black"/>
<path d="M579.166 197.779L563.938 213.074L564.732 213.864L579.96 198.57L579.166 197.779Z" fill="black"/>
</g>
<g id="base_3">
<path d="M407.087 387.927C404.947 379.771 402.565 369.262 401.31 365.693C401.259 365.553 401.085 365.167 400.956 365.083C399.83 364.332 393.217 361.167 385.562 362.444C383.191 362.842 375.054 362.086 371.798 364.556C370.789 365.318 370.408 366.606 370.319 367.867C369.859 374.662 368.727 395.658 368.917 402.744C368.951 404.016 369.825 405.158 371.075 405.41C384.867 408.217 400.906 406.923 408.051 401.528C408.842 400.929 409.284 399.982 409.195 398.991C409.015 397.092 408.522 393.389 407.087 387.927Z" fill="white"/>
<path d="M362.736 378.46C362.736 378.46 355.165 391.826 354.027 399.725C353.663 402.268 355.518 404.604 358.073 404.906C360.337 405.17 363.84 405.298 369.114 404.878C368.351 402.497 370.089 381.334 370.834 372.78C370.935 371.631 369.517 371.015 368.738 371.867L362.736 378.46Z" fill="white"/>
<path d="M388.582 372.091C390.202 375.463 396.316 388.33 397.622 393.495C397.785 394.134 397.28 394.739 396.624 394.7C390.645 394.302 384.873 395.176 382.412 395.624C381.785 395.736 381.224 395.226 381.275 394.593L382.945 373.984C382.973 373.62 383.208 373.301 383.544 373.166L387.338 371.62C387.815 371.424 388.358 371.631 388.582 372.091Z" fill="white"/>
<path d="M396.215 389.333C393.447 382.096 388.185 371.273 388.185 371.273L386.946 371.777L392.819 394.599C394.45 394.582 396.154 394.683 397.857 394.845C397.779 393.759 397.134 391.748 396.215 389.333Z" fill="#93B4F6"/>
<path d="M397.863 394.845C397.857 394.75 393.34 391.086 393.34 391.086C392.567 390.498 391.525 390.42 390.678 390.885L381.852 395.719C383.981 395.31 390.919 394.173 397.863 394.845Z" fill="#274D76"/>
<path d="M368.895 401.282C366.614 401.276 364.21 401.4 361.806 401.59C356.392 402.021 355.664 403.724 356.174 404.245C356.65 404.733 357.373 404.996 358.073 405.074C360.337 405.338 365.011 405.489 369.988 404.906C368.895 403.702 368.901 403.119 368.895 401.282Z" fill="black"/>
<path d="M406.964 367.928C405.345 365.929 404.42 366.175 401.461 366.13C402.716 370.466 404.902 379.603 407.087 387.933C409.273 396.257 409.284 400.492 409.284 400.492C412.03 400.128 414.244 399.719 419.618 398.817C424.006 398.078 424.399 394.448 422.129 391.086L406.964 367.928Z" fill="white"/>
<path d="M407.138 402.173C407.452 401.377 406.936 400.582 405.619 399.932C403.002 398.632 397.88 397.613 387.899 398.173C378.697 398.688 374.028 400.963 371.68 402.968C370.425 404.044 370.509 404.873 371.619 405.545C385.45 408.9 399.757 407.029 407.138 402.173Z" fill="#F2BDBA"/>
<path d="M420.19 398.918C421.3 398.632 421.473 397.445 420.896 397.03C420.65 396.856 420.358 396.677 420.011 396.498C417.281 395.097 412.921 395.114 408.752 395.613C409.279 398.851 409.374 399.629 408.78 400.727C412.176 400.492 419.859 399.002 420.19 398.918Z" fill="black"/>
<path d="M403.714 402.374C403.955 401.853 403.523 401.343 402.447 400.946C400.301 400.156 396.126 399.59 388.028 400.15C380.563 400.666 376.814 402.24 374.936 403.59C373.933 404.312 374.012 404.856 374.931 405.265C386.218 407.181 397.801 405.679 403.714 402.374Z" fill="black"/>
<path d="M369.147 384.959L368.483 398.006L369.602 398.063L370.266 385.016L369.147 384.959Z" fill="black"/>
<path d="M402.877 368.964L401.79 369.237L407.269 390.966L408.356 390.692L402.877 368.964Z" fill="black"/>
</g>
<g id="man_2">
<path d="M328.03 335.283L305.244 328.163C304.061 327.793 303.321 326.617 303.495 325.39L307.015 300.781C307.261 299.044 306.056 297.437 304.319 297.185L290.084 295.011C289.417 294.916 287.983 295.414 287.983 297.33C287.983 298.266 288.241 298.787 288.717 299.358L291.289 302.456C291.771 303.033 291.979 303.795 291.855 304.534L288.812 323.356L299.23 345.534L324.544 348.24L328.03 335.283Z" fill="#274D76"/>
<path d="M283.012 303.531L302.817 334.672C303.349 335.512 304.201 336.106 305.171 336.325L309.609 337.311C311.083 337.636 312.624 337.378 313.908 336.594L315.623 335.546C319.024 333.462 323.166 332.975 326.96 334.213L354.129 343.069L346.188 367.824L319.4 361.292C317.074 360.726 314.788 360.032 312.54 359.208C309.2 357.987 304.313 356.122 301.338 354.66C293.665 350.89 291.149 347.954 289.899 345.613C285.926 338.168 276.108 321.295 274.869 319.301C273.261 316.713 269.724 316.489 267.847 316.001C266.687 315.699 265.835 315.189 265.364 314.085L265.123 313.525C264.838 312.859 265.062 312.085 265.656 311.671L278.669 302.585C280.115 301.576 282.115 302.008 283.012 303.531Z" fill="#FFF3A1"/>
<path d="M366.245 360.015L390.22 359.998C392.175 359.987 394.193 360.57 395.224 361.751C395.841 362.457 396.939 363.981 397.522 364.715C397.925 365.23 397.78 365.897 397.197 365.757L394.288 364.715L394.804 366.496C395.157 367.46 394.277 367.897 393.532 367.521L390.634 366.155C390.707 366.961 389.855 367.533 389.132 367.157C387.799 366.463 387.289 366.015 385.445 364.76C384.985 364.452 384.442 364.295 383.887 364.323C378.944 364.569 375.458 365.185 372.443 366.418C370.207 367.331 370.151 369.656 370.112 370.384C370.045 371.611 368.386 375.286 368.386 375.286L352.778 372.076L350.015 361.69L366.245 360.015Z" fill="#274D76"/>
<path d="M357.133 362.782C363.929 362.782 369.439 357.044 369.439 349.965C369.439 342.887 363.929 337.148 357.133 337.148C350.336 337.148 344.826 342.887 344.826 349.965C344.826 357.044 350.336 362.782 357.133 362.782Z" fill="#FFF3A1"/>
<path d="M352.958 353.73C352.75 355.965 353.249 358.066 354.241 359.83C354.908 361.012 356.163 361.774 357.525 361.774C357.531 361.774 357.542 361.774 357.547 361.774C363.678 361.774 368.649 356.598 368.649 350.212C368.649 350.201 368.649 350.184 368.649 350.172C368.638 347.478 366.71 345.187 364.16 344.761C363.381 344.632 362.569 344.599 361.734 344.671C357.127 345.092 353.4 348.94 352.958 353.73Z" fill="black"/>
<path d="M392.663 375.493L390.018 375.801C389.805 375.823 389.698 375.554 389.867 375.426L392.086 373.751C392.954 373.095 392.433 371.717 391.352 371.801C388.947 371.986 385.848 372.244 383.635 372.479C383.27 372.518 383.108 372.025 383.427 371.84C384.419 371.275 384.941 371 385.972 370.423C387.446 369.594 385.994 368.429 384.307 368.491C381.152 368.614 378.008 370.513 375.615 370.513C371.289 370.513 359.313 369.93 359.313 369.93C358.366 369.897 357.486 369.415 356.953 368.631L347.224 354.239C344.501 350.643 339.362 349.976 335.814 352.761C332.446 355.399 331.723 360.211 334.172 363.723L348.418 381.969C349.735 383.655 351.736 384.674 353.877 384.747L384.896 384.277C388.594 384.282 391.195 380.932 391.525 379.19C392.478 378.546 393.156 377.84 393.644 377.201C394.21 376.451 393.605 375.381 392.663 375.493Z" fill="#FFF3A1"/>
<path d="M344.478 371.42C344.361 371.42 344.243 371.415 344.125 371.398C343.425 371.297 342.803 370.899 342.416 370.306L339.479 365.807C338.745 364.687 339.054 363.163 340.169 362.418L344.086 359.791C345.207 359.04 346.731 359.337 347.488 360.446L350.206 364.424C350.918 365.466 350.727 366.866 349.769 367.684L346.076 370.832C345.627 371.219 345.061 371.42 344.478 371.42ZM345.459 360.502C345.201 360.502 344.944 360.575 344.714 360.726L340.796 363.354C340.191 363.763 340.023 364.586 340.421 365.202L343.358 369.701C343.571 370.025 343.907 370.238 344.288 370.294C344.675 370.35 345.056 370.238 345.347 369.986L349.04 366.838C349.561 366.39 349.668 365.628 349.276 365.062L346.558 361.085C346.311 360.704 345.885 360.502 345.459 360.502Z" fill="black"/>
<path d="M355.102 371.846L348.967 378.274L349.778 379.047L355.913 372.619L355.102 371.846Z" fill="black"/>
<path d="M353.233 377.738L351.598 381.042L352.602 381.539L354.238 378.235L353.233 377.738Z" fill="black"/>
<path d="M357.717 371.726L355.43 382.636L356.527 382.866L358.814 371.956L357.717 371.726Z" fill="black"/>
<path d="M370.476 380.535C370.448 380.535 370.426 380.535 370.398 380.535C369.652 380.501 369.019 380.025 368.784 379.319L367.786 376.305L368.851 375.952L369.848 378.966C369.983 379.364 370.336 379.414 370.443 379.414C370.549 379.414 370.908 379.403 371.076 379.016L372.045 376.748C372.281 376.199 372.768 375.807 373.357 375.7C373.945 375.594 374.539 375.779 374.954 376.204L377.885 379.207C378.143 379.47 378.456 379.442 378.669 379.325C378.882 379.207 379.079 378.955 378.994 378.596L377.633 372.77L378.725 372.518L380.087 378.344C380.272 379.128 379.919 379.918 379.213 380.305C378.501 380.691 377.649 380.563 377.083 379.986L374.152 376.983C373.996 376.82 373.777 376.753 373.564 376.798C373.345 376.837 373.166 376.983 373.082 377.185L372.113 379.453C371.827 380.12 371.193 380.535 370.476 380.535Z" fill="black"/>
<path d="M298.232 335.622L290.206 338.375L290.57 339.435L298.596 336.682L298.232 335.622Z" fill="black"/>
<path d="M296.012 339.194L291.697 342.786L292.414 343.647L296.729 340.054L296.012 339.194Z" fill="black"/>
<path d="M299.21 339.411L295.856 348.036L296.901 348.442L300.255 339.816L299.21 339.411Z" fill="black"/>
<path d="M269.147 314.276C269.024 314.276 268.895 314.265 268.772 314.237L267.802 314.024L268.043 312.931L269.013 313.144C269.192 313.183 269.377 313.144 269.523 313.043C269.674 312.937 269.769 312.78 269.792 312.595L269.893 311.811C269.96 311.312 270.234 310.864 270.649 310.579C271.064 310.293 271.585 310.203 272.073 310.321L274 310.797C274.208 310.847 274.421 310.797 274.578 310.657C274.74 310.517 274.819 310.315 274.802 310.102L274.707 309.027C274.656 308.455 274.875 307.907 275.306 307.531C275.738 307.156 276.309 307.01 276.87 307.145L278.131 307.442C278.338 307.492 278.545 307.436 278.708 307.296C278.865 307.156 278.949 306.954 278.926 306.741C278.865 306.125 279.123 305.537 279.616 305.162C280.109 304.786 280.748 304.697 281.325 304.921L282.771 305.475L282.367 306.523L280.922 305.968C280.709 305.884 280.479 305.918 280.294 306.058C280.109 306.198 280.019 306.411 280.042 306.64C280.098 307.217 279.879 307.761 279.448 308.142C279.016 308.523 278.439 308.668 277.878 308.534L276.618 308.237C276.41 308.192 276.203 308.243 276.04 308.377C275.883 308.517 275.799 308.713 275.822 308.926L275.917 310.002C275.967 310.573 275.743 311.133 275.306 311.503C274.869 311.873 274.281 312.018 273.726 311.878L271.798 311.402C271.619 311.357 271.434 311.391 271.277 311.497C271.12 311.604 271.025 311.761 270.997 311.951L270.896 312.735C270.828 313.223 270.565 313.665 270.156 313.951C269.865 314.164 269.511 314.276 269.147 314.276Z" fill="black"/>
<path d="M350.183 359.617L346.765 354.559C345.56 352.968 343.772 351.931 341.76 351.668C339.749 351.411 337.759 351.954 336.162 353.203L335.473 352.324C337.311 350.884 339.592 350.257 341.906 350.559C344.221 350.862 346.266 352.049 347.678 353.909L351.114 358.99L350.183 359.617Z" fill="black"/>
</g>
<g id="base_4">
<path d="M463.231 341.299L543.404 268.8C547.545 265.052 553.603 265.349 558.507 268.021C568.421 273.427 585.424 283.09 600.589 299.515C613.321 313.307 634.477 335.204 636.977 353.741C637.262 355.864 636.523 357.993 635.037 359.533C610.592 384.848 560.866 431.472 555.307 436.211C542.148 447.432 508.025 422.1 488.584 399.514C480.463 390.086 453.07 350.878 463.231 341.299Z" fill="white"/>
<path d="M513.909 384.529C485.776 354.469 471.11 345.803 463.948 345.002C462.362 344.823 460.989 346.061 461 347.657C461.084 362.301 481.719 391.548 488.578 399.525C504.236 417.725 529.438 437.707 545.522 438.912C546.755 439.001 547.753 437.931 547.612 436.71C546.637 428.117 539.845 412.241 513.909 384.529Z" fill="#F2BDBA"/>
<path d="M590.888 320.063L579.024 310.131C577.163 308.573 574.748 307.851 572.338 308.142C562.727 309.296 537.598 312.674 529.175 317.301C526.053 319.015 519.295 326.499 519.295 326.499C516.846 329.037 516.834 333.053 519.272 335.608L534.695 352.643C535.765 353.825 537.57 353.959 538.803 352.951L551.132 342.857C552.466 341.764 552.6 339.77 551.423 338.504L548.941 335.849C547.949 334.919 548.408 333.255 549.742 332.969L589.834 324.365C591.829 323.922 592.463 321.379 590.888 320.063ZM572.411 337.434C570.483 336.067 568.085 335.949 566.269 337.451L529.023 368.199C526.782 370.048 526.642 374.546 528.541 376.748C530.015 378.456 532.986 381.862 534.426 383.61C537.088 386.842 541.459 386.943 543.605 384.988L553.659 375.829C554.573 375 555.985 375.056 556.826 375.958L558.955 378.243C560.463 379.823 562.951 379.902 564.554 378.423L575.656 368.171C577.757 366.228 577.774 362.911 575.684 360.951L574.658 359.987C573.7 359.091 573.711 357.561 574.681 356.682L579.792 352.027C581.697 350.29 582.375 346.397 579.971 344.128C579.977 344.128 574.905 339.21 572.411 337.434Z" fill="#93B4F6"/>
<path d="M465.797 350.822C469.003 346.767 497.326 373.179 506.926 382.966C523.358 399.71 547.22 432.116 541.47 433.629C537.889 434.57 515.736 422.168 492.35 395.744C474.557 375.633 463.819 353.326 465.797 350.822Z" fill="black"/>
</g>
<g id="man_3">
<g id="Group">
<path id="Vector" d="M643.096 409.651L582.319 416.788C572.461 417.947 563.842 423.981 559.386 432.848L532.184 487.483C531.024 489.791 528.446 491.018 525.924 490.463L516.257 488.335C509.476 486.839 502.7 490.861 500.767 497.527L499.254 502.754C498.413 505.65 499.736 508.731 502.414 510.12L547.04 533.239C549.999 534.768 553.636 533.743 555.357 530.892L600.207 457.883L662.195 453.978L643.096 409.651Z" fill="#274D76"/>
</g>
<g id="Group_2">
<path id="Vector_2" d="M698.19 369.598L708.278 386.963L684.74 462.588C682.532 470.257 673.756 475.041 665.877 473.731L635.58 470.369C631.691 469.72 630.296 471.714 631.658 475.411L644.732 535.379C646.951 541.412 643.51 548.045 637.295 549.709L592.215 561.752C587.85 562.918 583.49 559.87 583.092 555.372L580.497 539.894C580.391 538.712 580.054 533.967 582.739 532.051C586.662 529.251 592.826 525.329 592.826 525.329C594.905 524.214 595.118 520.881 594.508 518.607L577.381 452.035C574.585 441.621 581.069 433.548 591.711 431.778C605.161 429.538 627.578 424.496 627.578 424.496L637.178 361.895C638.439 356.926 643.028 353.526 648.156 353.773L662.884 354.473L698.19 369.598Z" fill="#FFF3A1"/>
</g>
<g id="Group_3">
<g id="Group_4">
<path id="Vector_3" d="M692.404 353.14C695.466 340.178 687.436 327.189 674.468 324.129C661.501 321.068 648.507 329.095 645.445 342.057C642.383 355.019 650.413 368.007 663.38 371.068C676.347 374.129 689.342 366.102 692.404 353.14Z" fill="#FFF3A1"/>
</g>
</g>
<g id="Group_5">
<g id="Group_6">
<path id="Vector_4" d="M711.024 374.034C703.581 366.713 690.86 367.15 683.014 373.872L655.201 399.192C653.676 400.458 651.418 400.262 650.135 398.755L630.43 375.732C627.258 372.018 625.342 367.402 624.949 362.539L624.238 353.761C624.187 353.168 624.047 352.585 623.812 352.036L620.219 342.793C619.726 341.521 618.011 341.364 617.266 342.507C616.257 344.059 615.708 346.395 615.708 348.714C615.708 353.196 616.762 358.036 615.08 358.036C612.839 358.036 610.177 353.633 609.039 349.498C607.733 344.742 607.083 340.95 604.78 338.844C603.738 337.891 601.883 338.519 601.597 340.104C600.93 343.756 601.698 350.636 601.759 354.54C601.776 355.66 600.773 355.638 600.465 354.277C599.518 350.059 596.934 337.169 596.934 337.169C596.525 335.471 594.183 335.275 593.504 336.889C591.565 341.521 592.288 351.599 592.641 355.347C592.675 355.677 592.227 355.812 592.075 355.52C591.139 353.773 589.486 350.333 588.304 345.952C588.04 344.978 586.707 344.765 586.213 345.644C584.728 348.316 585.485 354.697 585.883 357.319C585.922 357.565 585.586 357.677 585.462 357.464C584.818 356.333 584.325 355.263 583.826 353.985C583.182 352.333 581.797 353.28 581.68 354.327C581.287 357.862 581.086 362.915 582.588 369.39C583.131 371.726 585.098 378.734 593.914 389.271L640.989 441.369C649.395 452.012 660.166 449.206 666.207 444.73C681.339 433.526 709.27 405.926 709.27 405.926C719.895 396.963 717.67 380.572 711.024 374.034Z" fill="#FFF3A1"/>
</g>
</g>
<path id="Vector_5" d="M680.801 421.885C680.66 421.885 680.52 421.88 680.375 421.863C679.209 421.751 678.161 421.185 677.427 420.278L665.35 405.293C663.915 403.511 664.123 400.918 665.815 399.383L679.164 387.322C680.044 386.527 681.176 386.134 682.353 386.218C683.535 386.302 684.6 386.846 685.362 387.748L698.14 402.968C699.67 404.789 699.429 407.511 697.613 409.04L683.569 420.86C682.784 421.533 681.815 421.885 680.801 421.885ZM666.572 400.217C665.316 401.355 665.165 403.27 666.224 404.593L678.301 419.577C678.845 420.25 679.618 420.67 680.481 420.754C681.344 420.838 682.185 420.575 682.846 420.02L696.89 408.2C698.235 407.069 698.409 405.052 697.282 403.702L684.505 388.482C683.945 387.809 683.149 387.406 682.274 387.35C681.4 387.294 680.56 387.58 679.915 388.168L666.572 400.217Z" fill="black"/>
<path id="Vector_6" d="M614.828 395.607L613.954 394.907L620.248 387.014C620.617 386.549 620.489 386.062 620.242 385.759C619.995 385.457 619.541 385.233 619.009 385.501L611.897 389.159C610.967 389.636 609.913 389.406 609.263 388.594C608.613 387.781 608.636 386.7 609.308 385.905L615.635 378.437C616.028 377.973 615.899 377.474 615.652 377.166C615.4 376.858 614.946 376.622 614.408 376.908L596.077 386.235L595.567 385.238L613.892 375.911C614.812 375.424 615.876 375.648 616.526 376.46C617.182 377.278 617.165 378.359 616.493 379.16L610.166 386.627C609.773 387.087 609.897 387.585 610.143 387.893C610.39 388.202 610.844 388.437 611.382 388.162L618.488 384.504C619.401 384.034 620.449 384.252 621.099 385.042C621.749 385.832 621.755 386.907 621.116 387.709L614.828 395.607Z" fill="black"/>
<path id="Vector_7" d="M645.338 407.222L637.158 429.272L638.209 429.661L646.389 407.612L645.338 407.222Z" fill="black"/>
<path id="Vector_8" d="M658.172 412.012L657.115 412.384L666.55 439.181L667.607 438.809L658.172 412.012Z" fill="black"/>
<path id="Vector_9" d="M657.782 430.563L656.673 430.727L658.619 443.9L659.728 443.736L657.782 430.563Z" fill="black"/>
<path id="Vector_10" d="M645.171 425.484L643.155 436.039L644.256 436.249L646.272 425.694L645.171 425.484Z" fill="black"/>
<path id="Vector_11" d="M620.713 475.355L620.651 475.35L588.606 471.686L588.735 470.571L620.746 474.229C621.52 474.218 621.94 473.686 622.08 473.193C622.22 472.694 622.125 472.011 621.441 471.607L584.566 454.208C583.417 453.525 582.985 452.242 583.467 451.054C583.949 449.867 585.16 449.245 586.404 449.547L615.652 456.051C616.493 456.253 617.048 455.76 617.272 455.272C617.49 454.796 617.513 454.074 616.863 453.57L592.361 441.464L592.86 440.461L617.49 452.64C618.645 453.486 618.723 454.808 618.292 455.743C617.86 456.679 616.801 457.474 615.406 457.144L586.157 450.64C585.278 450.427 584.723 450.959 584.51 451.48C584.297 451.995 584.325 452.763 585.093 453.222L621.968 470.622C623.022 471.249 623.47 472.364 623.162 473.495C622.842 474.627 621.884 475.355 620.713 475.355Z" fill="black"/>
<path id="Vector_12" d="M587.155 555.383L586.124 554.946L587.839 550.913C588.253 549.938 589.072 549.216 590.092 548.924C591.112 548.633 592.187 548.818 593.056 549.428L594.838 550.683C595.46 551.12 596.228 551.238 596.951 550.991C597.674 550.75 598.218 550.196 598.453 549.473L598.761 548.515C599.109 547.423 599.977 546.577 601.07 546.247C602.163 545.916 603.357 546.146 604.248 546.857L606.058 548.297C606.68 548.79 607.47 548.941 608.227 548.706C608.983 548.476 609.555 547.905 609.79 547.148L610.255 545.653C610.597 544.555 611.421 543.72 612.519 543.373C613.618 543.02 614.772 543.222 615.691 543.916L617.77 545.49C618.398 545.966 619.188 546.101 619.939 545.854C620.69 545.608 621.245 545.031 621.469 544.275L622.248 541.625C622.59 540.465 623.487 539.58 624.652 539.25C625.812 538.925 627.045 539.216 627.942 540.029L629.612 541.547C630.234 542.112 631.092 542.308 631.899 542.056C632.706 541.81 633.305 541.171 633.507 540.353C633.804 539.132 634.701 538.185 635.911 537.833C637.116 537.48 638.383 537.782 639.296 538.65L641.896 541.121L641.123 541.933L638.523 539.463C637.901 538.875 637.043 538.667 636.225 538.908C635.407 539.149 634.796 539.788 634.594 540.622C634.303 541.832 633.417 542.768 632.229 543.132C631.041 543.496 629.78 543.216 628.861 542.376L627.191 540.858C626.586 540.303 625.751 540.107 624.961 540.331C624.17 540.555 623.56 541.154 623.33 541.939L622.551 544.588C622.226 545.686 621.385 546.555 620.298 546.913C619.205 547.272 618.012 547.07 617.098 546.381L615.019 544.807C614.397 544.336 613.612 544.202 612.867 544.437C612.121 544.672 611.561 545.238 611.331 545.983L610.866 547.479C610.524 548.577 609.661 549.434 608.563 549.776C607.464 550.112 606.271 549.888 605.368 549.171L603.558 547.731C602.942 547.238 602.157 547.087 601.401 547.316C600.644 547.546 600.073 548.106 599.832 548.857L599.523 549.815C599.182 550.885 598.375 551.697 597.31 552.056C596.245 552.414 595.113 552.246 594.194 551.596L592.412 550.341C591.823 549.927 591.095 549.804 590.4 550C589.71 550.196 589.15 550.689 588.87 551.35L587.155 555.383Z" fill="black"/>
<path id="Vector_13" d="M550.532 527.626H549.411V522.254C549.411 521.514 549.03 520.853 548.396 520.478C547.763 520.103 546.995 520.092 546.351 520.444L543.98 521.75C542.983 522.299 541.8 522.282 540.825 521.699C539.845 521.122 539.262 520.097 539.262 518.96V517.111C539.262 516.411 538.925 515.784 538.343 515.392C537.76 514.999 537.048 514.932 536.404 515.207L533.36 516.478C532.374 516.893 531.253 516.786 530.368 516.193C529.477 515.599 528.944 514.607 528.944 513.543V512.932C528.944 512.232 528.614 511.61 528.031 511.218C527.448 510.826 526.742 510.753 526.097 511.022L523.183 512.215C522.197 512.619 521.082 512.507 520.202 511.913C519.316 511.319 518.79 510.333 518.79 509.269C518.79 508.563 518.453 507.935 517.865 507.549C517.277 507.157 516.565 507.095 515.92 507.37L513.656 508.328C512.782 508.697 511.801 508.658 510.961 508.227C510.12 507.795 509.515 507.022 509.307 506.098L509.016 504.821C508.876 504.216 508.484 503.712 507.934 503.437C507.38 503.157 506.741 503.14 506.175 503.392L502.151 505.157L501.703 504.132L505.726 502.367C506.601 501.986 507.593 502.009 508.444 502.44C509.296 502.871 509.907 503.65 510.12 504.58L510.411 505.857C510.546 506.457 510.938 506.955 511.482 507.235C512.025 507.515 512.664 507.538 513.23 507.302L515.494 506.345C516.481 505.924 517.602 506.031 518.498 506.625C519.389 507.218 519.922 508.21 519.922 509.28C519.922 509.98 520.252 510.602 520.835 510.994C521.418 511.386 522.119 511.453 522.769 511.19L525.683 509.997C526.669 509.594 527.784 509.706 528.664 510.299C529.55 510.893 530.076 511.879 530.076 512.944V513.554C530.076 514.254 530.413 514.882 530.996 515.274C531.578 515.666 532.29 515.733 532.935 515.459L535.978 514.187C536.964 513.778 538.085 513.885 538.97 514.473C539.861 515.067 540.388 516.058 540.388 517.123V518.971C540.388 519.711 540.769 520.372 541.403 520.747C542.036 521.122 542.803 521.133 543.448 520.781L545.819 519.475C546.816 518.926 547.999 518.943 548.974 519.526C549.954 520.103 550.537 521.128 550.537 522.265V527.626H550.532Z" fill="black"/>
<g id="Group_7">
<g id="Group_8">
<path id="Vector_14" d="M676.553 355.884C671.374 364.287 657.588 368.69 650.874 359.66C643.415 349.622 648.734 328.273 664.257 327.377C667.799 327.169 671.329 328.329 674.12 330.637C681.204 336.502 682.358 346.462 676.553 355.884Z" fill="black"/>
</g>
</g>
<g id="Group_9">
<g id="Group_10">
<path id="Vector_15" d="M658.849 344.759C656.944 350.647 654.758 357.156 652.018 353.817C650.314 351.739 649.277 346.742 650.493 341.992C651.452 338.25 654.13 334.659 656.792 332.777C658.171 331.802 659.566 331.578 660.682 332.172C663.529 333.679 660.984 338.155 658.849 344.759Z" fill="#74BAAB"/>
</g>
</g>
<path id="Vector_16" d="M599.893 354.4C598.957 350.227 596.385 337.404 596.357 337.275L597.455 337.057C597.483 337.185 600.05 349.991 600.986 354.154L599.893 354.4Z" fill="black"/>
<path id="Vector_17" d="M611.253 355.761C610.098 354.086 609.09 351.857 608.484 349.65C608.271 348.877 608.075 348.126 607.89 347.403C606.943 343.779 606.198 340.911 604.388 339.258L605.144 338.429C607.201 340.306 607.986 343.314 608.978 347.118C609.162 347.835 609.359 348.58 609.572 349.347C610.149 351.442 611.096 353.548 612.183 355.123L611.253 355.761Z" fill="black"/>
<path id="Vector_18" d="M616.571 356.019L615.45 355.985C615.478 355.106 615.394 353.957 615.31 352.742C615.226 351.493 615.125 350.081 615.125 348.714C615.125 346.221 615.742 343.79 616.773 342.199L617.714 342.81C616.795 344.227 616.246 346.428 616.246 348.714C616.246 350.036 616.336 351.375 616.426 352.663C616.515 353.907 616.599 355.083 616.571 356.019Z" fill="black"/>
<path id="Vector_19" d="M652.881 400.576C651.692 400.576 650.521 400.077 649.697 399.12L640.366 388.218L641.218 387.49L650.549 398.391C651.631 399.657 653.553 399.825 654.836 398.761L682.633 373.457C684.157 372.152 685.872 371.06 687.738 370.208L688.204 371.228C686.433 372.035 684.807 373.071 683.373 374.298L655.571 399.607C654.786 400.257 653.828 400.576 652.881 400.576Z" fill="black"/>
<path id="Vector_20" d="M654.73 449.307C649.938 449.307 644.889 447.239 640.529 441.716L629.791 429.834L630.621 429.084L641.386 440.993C649.266 450.97 659.494 448.993 665.854 444.282C670.943 440.512 678.026 434.484 686.909 426.361L687.666 427.19C678.755 435.336 671.638 441.391 666.521 445.184C663.282 447.576 659.112 449.307 654.73 449.307Z" fill="black"/>
<path id="Vector_21" d="M584.953 357.739C584.33 356.646 583.815 355.554 583.282 354.187L584.33 353.784C584.846 355.111 585.322 356.131 585.928 357.184L584.953 357.739Z" fill="black"/>
<path id="Vector_22" d="M591.554 355.778C590.646 354.081 588.943 350.563 587.732 346.092L588.814 345.801C589.991 350.165 591.655 353.593 592.541 355.246L591.554 355.778Z" fill="black"/>
<path id="Vector_23" d="M668.908 372.225C659.847 372.225 651.53 367.279 647.204 359.313L648.19 358.775C652.32 366.377 660.261 371.105 668.908 371.105V372.225Z" fill="black"/>
</g>
</g>
</svg>
